<?xml version="1.0" encoding="UTF-8"?>
<svg id="Layer_2" data-name="Layer 2" xmlns="http://www.w3.org/2000/svg" xmlns:xlink="http://www.w3.org/1999/xlink" viewBox="0 0 171.86 133.8">
  <defs>
    <style>
      .cls-1 {
        fill: url(#linear-gradient);
      }

      .cls-2 {
        fill: #9e27b8;
      }
    </style>
    <linearGradient id="linear-gradient" x1="60.32" y1="113.29" x2="119.86" y2="10.16" gradientUnits="userSpaceOnUse">
      <stop offset="0" stop-color="#5923fd"/>
      <stop offset=".41" stop-color="#e62a6f"/>
      <stop offset=".77" stop-color="#fe442d"/>
      <stop offset="1" stop-color="#ff7d66"/>
    </linearGradient>
  </defs>
  <g id="Layer_1-2" data-name="Layer 1">
    <g>
      <path class="cls-2" d="M6.32,129.11c-.82,0-1.59-.1-2.31-.3-.72-.2-1.35-.49-1.91-.85-.56-.37-1.02-.77-1.39-1.22-.37-.45-.6-.92-.71-1.42l3.13-.93c.2.53.56.98,1.07,1.36.51.38,1.16.58,1.94.6.82.02,1.5-.16,2.02-.54.52-.37.78-.85.78-1.45,0-.51-.21-.94-.62-1.29-.41-.35-.98-.62-1.69-.8l-2.12-.56c-.79-.2-1.49-.51-2.1-.92s-1.08-.92-1.42-1.53-.51-1.31-.51-2.12c0-1.54.51-2.74,1.53-3.6,1.02-.86,2.46-1.29,4.33-1.29,1.04,0,1.96.15,2.74.46.78.3,1.44.73,1.97,1.29.53.56.93,1.22,1.21,1.98l-3.1.96c-.19-.53-.53-.98-1.03-1.35-.5-.37-1.13-.56-1.89-.56s-1.39.18-1.83.54-.66.86-.66,1.52c0,.51.18.92.52,1.21.35.3.83.52,1.43.68l2.15.54c1.4.34,2.49.96,3.27,1.84.78.89,1.17,1.87,1.17,2.96,0,.96-.23,1.81-.7,2.53-.47.72-1.14,1.29-2.03,1.69-.89.4-1.96.61-3.22.61ZM15,128.83v-16.33h3.2v13.41h7.18v2.92h-10.38ZM36.52,128.83v-13.41h-4.9v-2.92h12.97v2.92h-4.87v13.41h-3.2ZM52.48,128.28c-1,.58-2.01.86-3.04.85-1.03,0-1.99-.28-2.89-.82-.9-.54-1.64-1.33-2.24-2.37-.6-1.04-.9-2.08-.91-3.14,0-1.05.25-2.03.78-2.94s1.3-1.65,2.33-2.25c.89-.51,1.84-.75,2.86-.72,1.02.03,2.01.37,2.98,1s1.82,1.59,2.56,2.87l-7.39,4.27c.46.63,1.05,1,1.8,1.1.74.1,1.43-.03,2.08-.41.55-.32.93-.7,1.15-1.13s.31-.9.28-1.39l2.92-.45c.04.73-.04,1.43-.26,2.1-.21.67-.57,1.29-1.06,1.87s-1.14,1.09-1.93,1.55ZM46.51,122.98l4.36-2.52c-.28-.39-.61-.65-.99-.78-.38-.12-.75-.16-1.13-.1s-.72.17-1.01.34-.56.4-.82.7-.45.66-.55,1.06c-.1.4-.05.83.14,1.29ZM63.25,129.11c-1.21,0-2.29-.26-3.24-.78-.95-.52-1.69-1.24-2.22-2.17-.53-.92-.79-1.98-.79-3.16s.26-2.25.79-3.17c.53-.92,1.26-1.64,2.19-2.16s2.01-.78,3.22-.78,2.23.29,3.2.86c.96.58,1.66,1.41,2.1,2.5l-2.89,1.03c-.22-.45-.56-.81-1.01-1.08-.46-.27-.97-.41-1.53-.41s-1.08.14-1.52.41c-.44.27-.78.65-1.03,1.13s-.37,1.04-.37,1.68.12,1.19.37,1.67c.25.47.6.85,1.05,1.13.45.28.96.42,1.54.42s1.07-.15,1.53-.44c.46-.3.8-.68,1.01-1.17l2.92,1.03c-.45,1.1-1.15,1.96-2.11,2.57-.96.61-2.03.91-3.21.91ZM70.38,128.83v-16.33h3.08v6.16c.39-.58.87-1.01,1.45-1.32.58-.3,1.22-.46,1.94-.46.93,0,1.72.19,2.37.56.64.37,1.14.95,1.48,1.74.34.79.51,1.8.51,3.04v6.6h-3.08v-5.97c0-.79-.09-1.41-.28-1.84-.19-.44-.44-.75-.77-.94-.33-.19-.71-.29-1.14-.29-.79-.02-1.4.23-1.83.72-.43.5-.64,1.24-.64,2.22v6.11h-3.08ZM83.65,128.83v-11.66h2.89l.14,1.59c.37-.61.85-1.07,1.43-1.39.58-.32,1.25-.48,1.99-.48.92,0,1.7.19,2.36.56.65.37,1.15.95,1.49,1.74.34.79.5,1.8.49,3.04v6.6h-3.08v-5.97c0-.79-.09-1.41-.27-1.84-.18-.44-.43-.75-.76-.94-.33-.19-.71-.29-1.14-.29-.79-.02-1.4.23-1.83.72-.43.5-.64,1.24-.64,2.22v6.11h-3.08ZM102.38,129.11c-1.18,0-2.24-.26-3.16-.78-.93-.52-1.65-1.24-2.17-2.16-.52-.92-.78-1.97-.78-3.17s.26-2.25.77-3.17c.51-.92,1.23-1.64,2.15-2.16s1.97-.78,3.15-.78,2.25.26,3.17.78c.92.52,1.63,1.24,2.15,2.16.51.92.77,1.97.77,3.17s-.26,2.25-.77,3.17c-.51.92-1.22,1.64-2.13,2.16s-1.96.78-3.14.78ZM102.38,126.27c.58,0,1.08-.14,1.52-.42.44-.28.77-.66,1.01-1.15s.36-1.05.36-1.69-.12-1.2-.37-1.69c-.25-.49-.6-.87-1.04-1.15-.44-.28-.95-.42-1.53-.42s-1.06.14-1.5.42-.79.66-1.04,1.15-.37,1.05-.37,1.69.12,1.2.37,1.69.6.87,1.05,1.15c.45.28.96.42,1.54.42ZM110.45,128.83v-16.33h3.08v16.33h-3.08ZM121.67,129.11c-1.18,0-2.24-.26-3.16-.78-.93-.52-1.65-1.24-2.17-2.16-.52-.92-.78-1.97-.78-3.17s.26-2.25.77-3.17c.51-.92,1.23-1.64,2.15-2.16s1.97-.78,3.15-.78,2.25.26,3.17.78c.92.52,1.63,1.24,2.15,2.16.51.92.77,1.97.77,3.17s-.26,2.25-.77,3.17c-.51.92-1.22,1.64-2.13,2.16-.91.52-1.96.78-3.14.78ZM121.67,126.27c.58,0,1.08-.14,1.52-.42.44-.28.77-.66,1.01-1.15s.36-1.05.36-1.69-.12-1.2-.37-1.69c-.25-.49-.6-.87-1.04-1.15-.44-.28-.95-.42-1.53-.42s-1.06.14-1.5.42-.79.66-1.04,1.15-.37,1.05-.37,1.69.12,1.2.37,1.69.6.87,1.05,1.15c.45.28.96.42,1.54.42ZM134.98,133.8c-.89,0-1.67-.06-2.36-.19s-1.26-.29-1.73-.49-.85-.4-1.14-.61l1.21-2.47c.22.12.51.27.86.43.36.16.78.3,1.28.42.5.12,1.07.18,1.73.18s1.17-.12,1.64-.36c.47-.24.85-.61,1.12-1.12s.41-1.15.41-1.92v-1.12c-.39.61-.89,1.08-1.52,1.43-.62.35-1.33.52-2.12.52-1.07,0-2-.23-2.79-.7-.79-.47-1.4-1.12-1.83-1.96-.44-.84-.65-1.83-.65-2.99,0-1.21.22-2.27.65-3.16.44-.89,1.05-1.59,1.83-2.08.78-.49,1.71-.73,2.79-.73.79,0,1.5.18,2.12.55.62.37,1.13.88,1.52,1.55v-1.82h3.08v10.4c0,1.31-.25,2.43-.75,3.37-.5.94-1.2,1.65-2.11,2.13-.91.48-1.99.72-3.25.72ZM135.26,125.92c.53,0,.99-.14,1.39-.41.4-.27.7-.64.92-1.12.22-.47.33-1.01.33-1.62s-.11-1.17-.34-1.63-.54-.83-.93-1.1c-.4-.26-.86-.4-1.39-.4s-1.03.13-1.45.4c-.42.26-.75.63-.98,1.1-.23.47-.36,1.01-.37,1.63.02.61.14,1.15.37,1.62.23.47.56.85.99,1.12.43.27.91.41,1.46.41ZM145.48,115.28c-.47,0-.88-.18-1.24-.52-.36-.35-.54-.77-.54-1.25s.18-.9.54-1.25c.36-.35.77-.52,1.24-.52s.9.18,1.25.52.52.77.52,1.25-.18.9-.52,1.25-.77.52-1.25.52ZM143.94,128.83v-11.66h3.08v11.66h-3.08ZM157.63,128.28c-1,.58-2.01.86-3.04.85-1.03,0-1.99-.28-2.89-.82-.9-.54-1.64-1.33-2.24-2.37s-.9-2.08-.91-3.14c0-1.05.25-2.03.78-2.94s1.3-1.65,2.33-2.25c.89-.51,1.84-.75,2.86-.72,1.02.03,2.01.37,2.98,1s1.82,1.59,2.56,2.87l-7.39,4.27c.46.63,1.05,1,1.8,1.1.74.1,1.43-.03,2.08-.41.55-.32.93-.7,1.15-1.13s.31-.9.28-1.39l2.92-.45c.04.73-.04,1.43-.26,2.1-.21.67-.57,1.29-1.06,1.87s-1.14,1.09-1.93,1.55ZM151.66,122.98l4.36-2.52c-.28-.39-.61-.65-.99-.78-.38-.12-.75-.16-1.13-.1s-.72.17-1.01.34-.56.4-.82.7-.45.66-.55,1.06c-.1.4-.05.83.14,1.29ZM167.15,129.11c-.75,0-1.45-.11-2.1-.34s-1.23-.55-1.73-.98c-.5-.43-.89-.95-1.17-1.57l2.64-1.21c.23.37.55.7.96.97.4.27.87.41,1.4.41s.91-.07,1.19-.22c.28-.15.42-.36.42-.64s-.11-.49-.34-.62c-.23-.13-.53-.24-.92-.34l-1.07-.28c-1.12-.3-2-.77-2.65-1.41-.65-.64-.97-1.39-.97-2.23,0-1.2.38-2.12,1.15-2.78.77-.65,1.86-.98,3.28-.98.73,0,1.41.11,2.04.33.63.22,1.17.52,1.62.91.45.39.76.84.93,1.35l-2.54,1.17c-.11-.31-.37-.56-.79-.76-.42-.19-.84-.29-1.26-.29s-.74.09-.97.27-.34.42-.34.73c0,.2.11.37.33.5.22.13.53.24.93.34l1.52.37c.76.19,1.37.49,1.83.9.46.41.79.87,1,1.38.21.51.32,1,.32,1.48,0,.7-.21,1.32-.62,1.85-.41.54-.97.95-1.68,1.25s-1.51.44-2.41.44Z"/>
      <path class="cls-1" d="M93.88,59.04l42.15,42.15h-12.37l-42.15-42.15,29.35-29.35,6.19,6.19-23.17,23.17ZM62.63,101.19h12.37l12.7-12.7,12.7,12.7h12.37l-25.07-25.07-25.07,25.07ZM36.83,79.28v8.75c9.55,0,17.32-7.77,17.32-17.32s-7.77-17.32-17.32-17.32v8.75c4.73,0,8.57,3.85,8.57,8.57s-3.85,8.57-8.57,8.57ZM90.18,8.75c9.66,0,18.75,3.76,25.58,10.59,14.1,14.1,14.1,37.05,0,51.16l6.19,6.19c17.51-17.51,17.51-46.01,0-63.53C113.46,4.67,102.18,0,90.18,0s-23.28,4.67-31.76,13.16l6.19,6.18c6.83-6.83,15.92-10.59,25.58-10.59ZM39.36,101.19h12.37l30.49-30.49L42.01,30.5l-6.19,6.19,34.02,34.02-30.49,30.49ZM105.38,24.27l-6.19-6.19-23.17,23.17-23.17-23.17-6.19,6.19,29.35,29.35,29.35-29.35Z"/>
    </g>
  </g>
</svg>